HIERARCHY
ROOT Hips
{
  OFFSET 35.4308 103.371 -201.385
  CHANNELS 6 Xposition Yposition Zposition Zrotation Xrotation Yrotation
  JOINT RightUpLeg
  {
    OFFSET -8.9458 -8.66707 0.101652
    CHANNELS 3 Zrotation Xrotation Yrotation
    JOINT RightLeg
    {
      OFFSET 0 -44.4227 1.3727
      CHANNELS 3 Zrotation Xrotation Yrotation
      JOINT RightFoot
      {
        OFFSET 0.253549 -42.0924 -1.46059
        CHANNELS 3 Zrotation Xrotation Yrotation
        JOINT RightToes
        {
          OFFSET 0.04 -4.41509 8.4991
          CHANNELS 3 Zrotation Xrotation Yrotation
          End Site
          {
            OFFSET -0.08 -0.137448 9.77979
          }
        }
      }
    }
  }
  JOINT Spine
  {
    OFFSET 0 11.8905 0
    CHANNELS 3 Zrotation Xrotation Yrotation
    JOINT Spine1
    {
      OFFSET 0 25.6574 0.127663
      CHANNELS 3 Zrotation Xrotation Yrotation
      JOINT HEad
      {
        OFFSET 0 8.73416 0.011341
        CHANNELS 3 Zrotation Xrotation Yrotation
        End Site
        {
          OFFSET -0.29 12.7742 2.51395
        }
      }
      JOINT LeftShoulder1
      {
        OFFSET 8.99 -0.362252 -0.22
        CHANNELS 3 Zrotation Xrotation Yrotation
        JOINT LeftArm
        {
          OFFSET 10.2827 -0.00338 0.322123
          CHANNELS 3 Zrotation Xrotation Yrotation
          JOINT LeftForeArm
          {
            OFFSET 32.7669 0.099144 -1.42434
            CHANNELS 3 Zrotation Xrotation Yrotation
            JOINT LeftHand
            {
              OFFSET 27.5643 0.085362 1.02216
              CHANNELS 3 Zrotation Xrotation Yrotation
              End Site
              {
                OFFSET 16.7443 -0.6 1.50291
              }
            }
          }
        }
      }
      JOINT RightShoulder
      {
        OFFSET -8.99 -0.362252 -0.22
        CHANNELS 3 Zrotation Xrotation Yrotation
        JOINT RightArm
        {
          OFFSET -10.2827 -0.00338 0.322123
          CHANNELS 3 Zrotation Xrotation Yrotation
          JOINT RightForeArm
          {
            OFFSET -32.8971 0.099144 -1.42434
            CHANNELS 3 Zrotation Xrotation Yrotation
            JOINT RightHand
            {
              OFFSET -27.4921 0.085362 1.02216
              CHANNELS 3 Zrotation Xrotation Yrotation
              End Site
              {
                OFFSET -16.6312 -0.6 1.50291
              }
            }
          }
        }
      }
    }
  }
  JOINT LeftUpLeg
  {
    OFFSET 8.9458 -8.66707 0.101652
    CHANNELS 3 Zrotation Xrotation Yrotation
    JOINT LeftLeg
    {
      OFFSET 0 -44.4227 1.3727
      CHANNELS 3 Zrotation Xrotation Yrotation
      JOINT LeftFoot
      {
        OFFSET -0.253549 -42.0924 -1.46059
        CHANNELS 3 Zrotation Xrotation Yrotation
        JOINT LeftToes
        {
          OFFSET -0.04 -4.41509 8.4991
          CHANNELS 3 Zrotation Xrotation Yrotation
          End Site
          {
            OFFSET 0.08 -0.047448 9.77979
          }
        }
      }
    }
  }
}
MOTION
Frames:	10
Frame Time:	0.0166667
35.4015 103.196 -203.012 3.40529 -0.00687998 -11.6534 -0.114567 9.48155 -0.0480154 -1.24444 26.3458 -0.704038 0.321358 -4.91301 -0.161516 0.0462048 0.000533964 0.662642 -0.298013 3.37472 -0.374278 -2.36865 -6.01318 -0.109042 -5.9691 0.798351 11.6213 -1.49089e-016 0 -0 -83.1407 -54.6406 12.683 -13.6331 13.7371 -10.5283 0.368473 9.90896 -0.00117926 -6.93326 0.280198 8.23662 100.596 -33.4676 10.8482 12.6532 12.9858 3.72805 -0.369625 9.91382 0.00119887 -7.36471 -21.6233 1.75283 -1.58507 28.179 12.6264 -2.0928 -7.25338 -0.00637446 3.46935e-013 3.60377e-012 -4.23391e-011 
35.4308 103.371 -201.385 3.64593 -0.101324 -11.7213 -0.914856 7.91393 -0.664517 -1.44437 29.9887 -0.648093 1.24407 -2.7412 -0.169087 0.462154 5.57903 5.82502 -0.786492 3.39393 -0.282364 -2.40931 -5.8665 -0.0974563 -5.93444 0.821796 11.5886 4.96962e-017 3.97569e-016 3.18055e-015 -84.3987 -53.9157 10.7879 -13.5041 13.7355 -10.555 0.368473 9.90896 -0.00117926 -6.60234 0.303 7.8412 99.9381 -33.7471 10.2099 12.7735 12.9286 3.29008 -0.369625 9.91382 0.00119887 -7.87221 -20.2851 2.23776 -1.39745 27.7045 12.3659 -1.77277 -7.83715 0.00195379 -0.0506862 -0.602898 -0.595108 
35.4506 103.508 -199.801 3.87691 -0.174759 -11.8266 -1.68647 6.14504 -1.23615 -1.67447 33.8526 -0.37194 2.17476 -0.471278 -0.198282 0.151609 9.96916 9.64514 -1.26856 3.41986 -0.192021 -2.46353 -5.71824 -0.086459 -5.84982 0.807926 11.5848 -2.20695e-032 3.97569e-016 3.18055e-015 -85.6806 -53.0435 8.80389 -13.3879 13.7249 -10.4995 0.368473 9.90896 -0.00117926 -6.26402 0.325723 7.4569 99.3209 -33.9943 9.65101 12.8762 12.8729 2.86488 -0.369625 9.91382 0.00119887 -8.37646 -19.0526 2.43796 -1.34094 27.3473 12.3533 -1.53399 -8.50465 0.00629117 -0.0871234 -1.07788 -0.970095 
35.4497 103.534 -198.33 4.09896 -0.182424 -12.0282 -2.36312 3.80999 -1.90617 -2.15504 38.3882 0.947193 3.19931 2.1398 -0.289979 0.397349 11.4224 8.92488 -1.74593 3.46506 -0.10145 -2.55184 -5.59073 -0.0772766 -5.63698 0.711072 11.6578 -4.96962e-017 -1.98785e-016 3.18055e-015 -87.1069 -51.7581 6.52969 -13.3117 13.6788 -10.1299 0.368473 9.90896 -0.00117926 -5.94658 0.346522 7.13453 98.857 -34.1626 9.3201 12.9195 12.8175 2.42157 -0.369625 9.91382 0.00119887 -8.82629 -18.1338 1.72505 -1.6856 27.3447 13.1053 -1.55532 -9.46313 -0.0029665 -0.0408058 -1.07854 -0.613448 
35.424 103.518 -196.923 4.27263 -0.174857 -12.2997 -2.89989 1.20338 -2.09146 -2.80354 43.1026 2.02176 4.10951 4.75525 -0.408322 0.828876 11.2881 6.99871 -2.18773 3.51877 -0.0223297 -2.66659 -5.41069 -0.068556 -5.32993 0.519158 11.7788 -1.49089e-016 0 -3.18055e-015 -88.5249 -50.3489 4.11901 -13.2429 13.639 -9.81393 0.368473 9.90896 -0.00117926 -5.5369 0.37049 6.76611 98.4099 -34.2788 9.1107 12.9639 12.7763 2.10279 -0.369625 9.91382 0.00119887 -9.15856 -17.3221 0.90812 -2.12137 27.4497 14.0451 -1.62703 -10.4258 -0.0132313 0.0185345 -1.13345 -0.178071 
35.3614 103.514 -195.55 4.35036 -0.186956 -12.6646 -3.04327 -1.5442 -1.04003 -2.84616 47.7241 0.917707 4.79033 7.47333 -0.560446 0.594923 9.96289 7.25946 -2.54055 3.57638 0.0219224 -2.84037 -5.09016 -0.0596763 -4.88581 0.15863 11.9797 -2.73329e-016 0 -1.59028e-015 -89.8816 -49.1074 1.60148 -13.1774 13.6621 -10.0245 0.368473 9.90896 -0.00117926 -4.86948 0.406972 6.22861 97.8593 -34.3145 9.00134 13.0729 12.7638 2.05168 -0.369625 9.91382 0.00119887 -9.32771 -16.4686 0.647 -2.4087 27.4379 14.8247 -1.54839 -11.0658 -0.0101428 0.0170349 -1.85979 -0.39395 
35.2757 103.487 -194.215 4.35518 -0.220467 -13.0324 -2.8589 -4.31903 0.599984 -2.14807 52.1361 -1.21167 5.02303 9.23202 -0.6579 0.499334 8.32293 6.70825 -2.87325 3.63208 0.0683082 -2.97318 -4.69547 -0.0496946 -4.45396 -0.231088 12.1285 1.98785e-016 -6.21202e-018 -0 -91.2613 -47.7796 -1.07346 -13.0616 13.6826 -10.2126 0.368473 9.90896 -0.00117926 -4.12842 0.441437 5.61799 97.2619 -34.3855 8.88079 13.1984 12.7795 2.23535 -0.369625 9.91382 0.00119887 -9.40007 -15.6369 0.708684 -2.58286 27.5124 15.2676 -1.46834 -11.7105 -0.00814604 0.0228462 -2.64563 -0.518759 
35.1802 103.405 -192.927 4.28645 -0.308622 -13.3168 -2.45976 -6.91346 2.50565 -0.821253 56.2256 -3.38537 4.36763 8.43858 -0.566759 1.1865 7.6281 2.27658 -3.26016 3.69006 0.161959 -2.93861 -4.23566 -0.0358805 -4.23467 -0.541396 12.0426 5.96354e-016 -9.93923e-017 3.18055e-015 -92.7264 -46.1474 -3.96707 -12.8316 13.6395 -9.86815 0.368473 9.90896 -0.00117926 -3.47657 0.458482 4.97412 96.6529 -34.6499 8.60744 13.2951 12.838 2.75625 -0.369625 9.91382 0.00119887 -9.42113 -14.8573 1.22836 -2.53534 27.909 14.8204 -1.50107 -12.6926 -0.0216501 0.141783 -2.9126 0.240725 
35.0647 103.315 -191.654 4.167 -0.391741 -13.529 -1.83052 -9.44237 4.49007 0.930694 59.7334 -5.91507 3.33254 6.78402 -0.420359 1.85754 6.96765 -2.407 -3.63185 3.71582 0.255089 -2.84855 -3.79471 -0.0229713 -4.04951 -0.75702 11.9027 -6.4605e-016 -1.98785e-016 3.18055e-015 -94.0842 -44.3862 -6.86651 -12.514 13.5753 -9.3475 0.368473 9.90896 -0.00117926 -2.81476 0.469839 4.34228 95.9645 -34.9505 8.24464 13.413 12.9043 3.35254 -0.369625 9.91382 0.00119887 -9.40026 -14.0708 1.76581 -2.44747 28.3103 14.2628 -1.55263 -13.6699 -0.0369036 0.267102 -3.17696 1.00517 
34.917 103.257 -190.366 4.02699 -0.393932 -13.6515 -1.0365 -12.0153 6.16728 2.43178 62.3628 -8.54648 2.27181 5.58335 -0.313506 1.91375 6.07452 -3.99108 -3.93644 3.66458 0.306672 -2.79132 -3.51939 -0.0160999 -3.74257 -0.762066 11.8939 -6.4605e-016 0 -0 -95.2416 -42.6792 -9.66633 -12.069 13.5086 -8.79052 0.368473 9.90896 -0.00117926 -2.06326 0.486103 3.81034 95.0935 -35.1846 7.78482 13.5962 12.9445 3.75161 -0.369625 9.91382 0.00119887 -9.31484 -13.2482 1.84782 -2.54205 28.4363 14.3761 -1.55025 -14.34 -0.0419775 0.287412 -3.91102 0.905141 
